nColumns=19
nRows=59
DataType=double
version=3
OpenSimVersion=4.1
endheader
time	ground_force_1_vx	ground_force_1_vy	ground_force_1_vz	ground_force_1_px	ground_force_1_py	ground_force_1_pz	ground_force_1_mx	ground_force_1_my	ground_force_1_mz	ground_force_2_vx	ground_force_2_vy	ground_force_2_vz	ground_force_2_px	ground_force_2_py	ground_force_2_pz	ground_force_2_mx	ground_force_2_my	ground_force_2_mz
1.39167	0	0	0	-0.000966733	0	0.000250016	0	0	0	-5.48621	34.5572	-2.34393	1.07857	0	-0.252188	0	-0.145681	0
1.4	0	0	0	-0.000966734	0	0.000250013	0	0	0	-16.2539	92.9239	-5.63701	1.11857	0	-0.303564	-0	1.216	-0
1.40833	0	0	0	-0.000966735	0	0.00025001	0	0	0	-30.988	232.544	-8.23714	1.11422	0	-0.314485	0	-1.38951	0
1.41667	0	0	0	-0.000966736	0	0.000250008	0	0	0	-48.2076	484.323	-8.96238	1.10334	0	-0.313079	0	-9.12269	0
1.425	0	0	0	-0.000966737	0	0.000250005	0	0	0	-73.9918	811.373	-10.574	1.09422	0	-0.308712	0	-17.0101	0
1.43333	0	0	0	-0.000966738	0	0.000250002	0	0	0	-116.567	1096.42	-18.9877	1.08674	0	-0.304523	0	-16.6147	0
1.44167	0	0	0	-0.000966739	0	0.000249999	0	0	0	-172.662	1251.48	-37.4275	1.07898	0	-0.302213	0	-4.69596	0
1.45	0	0	0	-0.000966741	0	0.000249996	0	0	0	-223.935	1313.36	-59.7048	1.06813	0	-0.302392	-0	10.6612	-0
1.45833	0	0	0	-0.000966742	0	0.000249993	0	0	0	-251.299	1379.52	-71.9504	1.05201	0	-0.303358	-0	15.4366	-0
1.46667	0	0	0	-0.000966743	0	0.00024999	0	0	0	-251.758	1496.25	-65.6352	1.03187	0	-0.302759	-0	3.82641	-0
1.475	0	0	0	-0.000966744	0	0.000249987	0	0	0	-232.581	1631.4	-48.2692	1.01024	0	-0.301189	0	-14.1162	0
1.48333	0	0	0	-0.000966745	0	0.000249984	0	0	0	-202.306	1732.29	-36.368	0.98826	0	-0.300981	0	-22.0454	0
1.49167	0	0	0	-0.000966746	0	0.000249981	0	0	0	-167.272	1782.33	-37.0548	0.965993	0	-0.302881	0	-14.649	0
1.5	0	0	0	-0.000966747	0	0.000249978	0	0	0	-130.039	1797.05	-41.4658	0.943297	0	-0.305159	0	-2.45607	0
1.50833	0	0	0	-0.000966748	0	0.000249976	0	0	0	-93.5307	1791.38	-38.3542	0.920707	0	-0.305916	-0	1.40419	-0
1.51667	0	0	0	-0.000966749	0	0.000249973	0	0	0	-58.7174	1763.21	-28.8906	0.898545	0	-0.305625	0	-4.36278	0
1.525	0	0	0	-0.000966751	0	0.00024997	0	0	0	-23.047	1700.85	-23.3758	0.876448	0	-0.306153	0	-10.6245	0
1.53333	0	0	0	-0.000966752	0	0.000249967	0	0	0	16.3014	1603	-26.9192	0.853394	0	-0.307771	0	-10.6312	0
1.54167	0	0	0	-0.000966753	0	0.000249964	0	0	0	61.8351	1481.52	-34.6831	0.827968	0	-0.308912	0	-6.59544	0
1.55	0	0	0	-0.000966754	0	0.000249961	0	0	0	112.313	1346.15	-40.8157	0.79996	0	-0.308415	0	-3.68674	0
1.55833	0	0	0	-0.000966755	0	0.000249958	0	0	0	158.281	1196.55	-45.9773	0.771352	0	-0.306982	0	-2.3517	0
1.56667	0	0	0	-0.000966756	0	0.000249956	0	0	0	188.368	1028.17	-53.4044	0.744188	0	-0.306232	-0	0.532333	-0
1.575	0	0	0	-0.000966757	0	0.000249953	0	0	0	200.143	845.104	-61.472	0.718097	0	-0.3066	-0	5.33812	-0
1.58333	0	0	0	-0.000966758	0	0.00024995	0	0	0	196.238	662.654	-64.2377	0.692007	0	-0.306698	-0	8.23486	-0
1.59167	0	0	0	-0.000966759	0	0.000249947	0	0	0	177.008	495.151	-58.4041	0.66735	0	-0.304961	-0	6.16772	-0
1.6	0	0	0	-0.00096676	0	0.000249944	0	0	0	143.768	348.211	-46.7568	0.648093	0	-0.301781	-0	0.737766	-0
1.60833	0	0	0	-0.000966761	0	0.000249942	0	0	0	103.897	224.347	-34.3849	0.636519	0	-0.29932	0	-4.01403	0
1.61667	0	0	0	-0.000966762	0	0.000249939	0	0	0	67.0313	129.103	-23.647	0.63171	0	-0.298121	0	-6.18021	0
1.625	0	0	0	-0.000966763	0	0.000249936	0	0	0	38.7435	66.518	-14.0693	0.635791	0	-0.29117	0	-6.83555	0
1.63333	0	0	0	-0.000966765	0	0.000249933	0	0	0	19.7492	32.3956	-5.73751	0.671647	0	-0.258627	0	-7.12027	0
1.64167	0	0	0	-0.000966766	0	0.000249931	0	0	0	8.84066	16.0629	-0.455879	0.776324	0	-0.186013	0	-6.48663	0
1.65	0	0	0	-0.000966767	0	0.000249928	0	0	0	0	0	0	-0.000966693	0	0.000249854	0	0	0
1.65833	0	0	0	-0.000966768	0	0.000249925	0	0	0	0	0	0	-0.000966694	0	0.000249851	0	0	0
1.66667	0	0	0	-0.000966769	0	0.000249923	0	0	0	0	0	0	-0.000966694	0	0.000249847	0	0	0
1.675	0	0	0	-0.00096677	0	0.00024992	0	0	0	0	0	0	-0.000966695	0	0.000249844	0	0	0
1.68333	0	0	0	-0.000966771	0	0.000249917	0	0	0	0	0	0	-0.000966695	0	0.000249841	0	0	0
1.69167	0	0	0	-0.000966772	0	0.000249915	0	0	0	0	0	0	-0.000966695	0	0.000249838	0	0	0
1.7	0	0	0	-0.000966773	0	0.000249912	0	0	0	0	0	0	-0.000966696	0	0.000249834	0	0	0
1.70833	0	0	0	-0.000966774	0	0.00024991	0	0	0	0	0	0	-0.000966696	0	0.000249831	0	0	0
1.71667	0	0	0	-0.000966775	0	0.000249907	0	0	0	0	0	0	-0.000966697	0	0.000249828	0	0	0
1.725	0	0	0	-0.000966776	0	0.000249904	0	0	0	0	0	0	-0.000966697	0	0.000249825	0	0	0
1.73333	0	0	0	-0.000966777	0	0.000249902	0	0	0	0	0	0	-0.000966697	0	0.000249822	0	0	0
1.74167	0	0	0	-0.000966778	0	0.000249899	0	0	0	0	0	0	-0.000966698	0	0.000249819	0	0	0
1.75	-1.38678	14.2801	-2.50622	-0.000966779	0	0.000249897	0	0	0	0	0	0	-0.000966698	0	0.000249816	0	0	0
1.75833	-1.04791	37.7619	-5.9056	1.12334	0	-0.284565	0	-4.6956	0	0	0	0	-0.000966699	0	0.000249813	0	0	0
1.76667	1.13403	105.416	-10.4834	1.09564	0	-0.330967	-0	6.75873	-0	0	0	0	-0.000966699	0	0.00024981	0	0	0
1.775	2.5638	261.557	-11.9372	1.0854	0	-0.345483	-0	20.574	-0	0	0	0	-0.000966699	0	0.000249807	0	0	0
1.78333	-4.58695	536.2	-2.56559	1.07743	0	-0.349055	-0	25.0087	-0	0	0	0	-0.0009667	0	0.000249804	0	0	0
1.79167	-33.0747	886.59	22.8507	1.06998	0	-0.349905	-0	12.1006	-0	0	0	0	-0.0009667	0	0.000249801	0	0	0
1.8	-90.4656	1187.82	58.8981	1.06401	0	-0.350411	0	-11.9015	0	0	0	0	-0.000966701	0	0.000249798	0	0	0
1.80833	-165.254	1352.78	88.3751	1.05831	0	-0.351808	0	-28.5977	0	0	0	0	-0.000966701	0	0.000249795	0	0	0
1.81667	-226.491	1429.81	95.5593	1.04819	0	-0.354656	0	-24.002	0	0	0	0	-0.000966701	0	0.000249792	0	0	0
1.825	-249.427	1513.22	83.0073	1.02981	0	-0.357681	0	-3.49596	0	0	0	0	-0.000966702	0	0.000249789	0	0	0
1.83333	-236.771	1633.53	69.591	1.00609	0	-0.358542	-0	13.1785	-0	0	0	0	-0.000966702	0	0.000249786	0	0	0
1.84167	-210.015	1758.98	68.9651	0.982484	0	-0.356931	-0	12.9617	-0	0	0	0	-0.000966702	0	0.000249784	0	0	0
1.85	-180.108	1846.48	75.4246	0.960197	0	-0.354928	-0	2.02673	-0	0	0	0	-0.000966703	0	0.000249781	0	0	0
1.85833	-141.74	1876.32	75.0234	0.937385	0	-0.354409	0	-4.53965	0	0	0	0	-0.000966703	0	0.000249778	0	0	0
1.86667	-93.4843	1853.46	65.2184	0.913237	0	-0.355131	0	-1.26076	0	0	0	0	-0.000966703	0	0.000249775	0	0	0
1.875	-44.6772	1795.44	56.2429	0.888995	0	-0.355051	-0	4.4534	-0	0	0	0	-0.000966704	0	0.000249773	0	0	0
